<svg width="266" height="105" viewBox="0 0 266 105" fill="none" xmlns="http://www.w3.org/2000/svg">
<path d="M100.823 42.4626H110.743C116.195 42.4626 119.12 45.3482 119.12 49.4528C119.12 52.8231 117.084 55.0185 114.711 55.6647C116.268 56.0646 117.646 56.9737 118.626 58.2472C119.606 59.5206 120.132 61.0852 120.119 62.6916C120.119 68.3822 115.85 70.9007 110.89 70.9007H100.823V42.4626ZM110.015 54.6881C114.931 54.6881 116.805 52.8671 116.805 49.5483C116.805 46.7507 114.85 44.4745 110.868 44.4745H102.976V54.6881H110.015ZM102.976 68.8668H110.956C114.696 68.8668 117.826 67.0017 117.826 62.8164C117.826 59.2038 115.512 56.722 109.78 56.722H102.946L102.976 68.8668Z" fill="white"/>
<path d="M140.348 60.7017C140.348 66.3482 137.218 71.3853 131.163 71.3853C125.674 71.3853 122.257 66.8769 122.257 60.7458C122.257 54.9377 125.468 50.0989 131.369 50.0989C136.799 50.0989 140.348 54.3356 140.348 60.7017ZM124.41 60.7458C124.41 65.5773 127.019 69.4762 131.325 69.4762C135.631 69.4762 138.195 65.8636 138.195 60.7458C138.195 55.951 135.756 52.008 131.244 52.008C126.637 52.008 124.44 55.8703 124.44 60.7458H124.41Z" fill="white"/>
<path d="M160.092 60.7017C160.092 66.3482 156.962 71.3853 150.907 71.3853C145.418 71.3853 142.001 66.8769 142.001 60.7458C142.001 54.9377 145.212 50.0989 151.113 50.0989C156.514 50.0989 160.092 54.3356 160.092 60.7017ZM144.162 60.7458C144.162 65.5773 146.763 69.4762 151.069 69.4762C155.375 69.4762 157.939 65.8636 157.939 60.7458C157.939 55.951 155.5 52.008 150.988 52.008C146.351 52.008 144.162 55.8703 144.162 60.7458Z" fill="white"/>
<path d="M165.133 61.0689C167.007 59.079 172.694 53.3077 175.42 50.5909H178.022L169.939 58.6678L178.999 70.8934H176.479L168.469 59.9675L165.096 63.2129V70.9007H163.127V40.9573H165.155L165.133 61.0689Z" fill="white"/>
<path d="M183.702 61.0689L180.079 70.9007H177.875L188.324 42.4626H190.925L201.822 70.9007H199.419L195.745 61.0689H183.702ZM194.959 59.035C191.792 50.5909 190.161 46.5524 189.595 44.614H189.58C188.889 46.7727 187.06 51.8098 184.503 59.035H194.959Z" fill="white"/>
<path d="M206.194 40.9573V53.9979C206.813 52.7674 207.777 51.7434 208.968 51.0511C210.159 50.3587 211.527 50.0279 212.903 50.0989C215.791 50.0989 219.773 51.5675 219.773 57.985V70.9007H217.738V58.4182C217.738 54.3944 215.908 52.1182 212.535 52.1182C208.509 52.1182 206.194 54.6 206.194 59.593V70.9007H204.159V40.9573H206.194Z" fill="white"/>
<path d="M238.077 67.0384C238.063 68.3317 238.159 69.6237 238.364 70.9007H236.409C236.163 69.8762 236.04 68.8262 236.042 67.7727C235.351 69.2412 233.566 71.3853 229.377 71.3853C224.66 71.3853 222.624 68.3454 222.624 65.2909C222.624 60.8266 226.085 58.7926 232.177 58.7926H236.035V56.722C236.035 54.6881 235.425 51.9713 230.788 51.9713C226.688 51.9713 226.078 54.1227 225.644 55.7895H223.609C223.852 53.5867 225.233 50.0989 230.847 50.0989C235.483 50.0989 238.085 52.0521 238.085 56.5164L238.077 67.0384ZM236.086 60.5402H232.125C227.614 60.5402 224.814 61.7224 224.814 65.2101C224.814 67.7727 226.644 69.5203 229.487 69.5203C235.3 69.5203 236.101 65.658 236.101 61.2745L236.086 60.5402Z" fill="white"/>
<path d="M83.9002 46.0311C82.7884 46.8337 81.7395 47.7199 80.7626 48.6818C73.6497 54.8986 66.5441 61.1301 59.4459 67.3762C59.2158 67.5179 59.0497 67.7432 58.9825 68.0048C58.9153 68.2664 58.9524 68.5438 59.0858 68.7787C59.5634 69.8948 59.512 69.8874 58.4759 70.4234C53.9348 72.7951 49.4084 72.4574 44.8746 70.4234C44.5807 70.2913 44.4338 70.1444 44.6395 69.8287C44.6609 69.7864 44.6781 69.7421 44.6909 69.6965C44.904 69.1164 45.4772 68.5217 45.2935 67.9857C45.1098 67.4497 44.4558 67.1633 43.9929 66.7815L20.4791 47.2427C20.3395 47.1252 20.2292 46.9343 20.0088 46.9343V46.7874C20.7436 46.2 21.4343 45.642 22.1103 45.0178C22.4263 44.7241 22.6174 44.7241 22.948 45.0178C31.2268 51.9787 39.5155 58.9346 47.8139 65.8857C47.975 66.0815 48.2056 66.2075 48.4574 66.2376C48.7093 66.2677 48.9631 66.1995 49.1659 66.0472C50.0902 65.5079 51.1413 65.2237 52.2117 65.2237C53.282 65.2237 54.3332 65.5079 55.2575 66.0472C55.4253 66.1739 55.6354 66.2316 55.8444 66.2084C56.0535 66.1852 56.2458 66.0828 56.3817 65.9224C63.0097 60.0483 69.6523 54.1741 76.3097 48.3C77.8454 46.9416 79.3959 45.5906 80.9169 44.2102C81.2917 43.865 81.5047 43.9238 81.8722 44.2102C82.483 44.8191 83.1696 45.3471 83.9149 45.7815L83.9002 46.0311ZM51.8406 68.7934C52.792 68.7908 53.7386 68.6599 54.6549 68.4042C54.8827 68.3381 55.2648 68.4042 55.2575 68.0371C55.2496 67.8826 55.2005 67.733 55.1152 67.6039C55.0299 67.4747 54.9116 67.3708 54.7725 67.3028C54.0005 66.8294 53.1145 66.574 52.2088 66.5637C51.3031 66.5533 50.4115 66.7885 49.6288 67.2441C49.3412 67.4084 49.1202 67.6682 49.0043 67.9783C48.8793 68.272 48.9234 68.3822 49.2467 68.463C50.1 68.6441 50.9685 68.7449 51.8406 68.764V68.7934Z" fill="white"/>
<path d="M44.9775 88.993C44.7907 88.7147 44.6886 88.3883 44.6836 88.0532C44.6836 84.6462 44.6836 81.2318 44.6836 77.8248C44.6836 77.421 44.6836 77.0318 45.1612 76.8703C45.6388 76.7088 46.065 77.0539 46.0724 77.678C46.0724 78.9629 46.0724 80.2406 46.0724 81.5255C46.0724 82.0615 46.2046 82.2598 46.7557 82.2157C48.6883 82.2157 50.6282 82.2157 52.5607 82.2157C53.0457 82.2157 53.1853 82.0689 53.1706 81.599C53.1706 80.3434 53.1706 79.0804 53.1706 77.8248C53.1706 77.3255 53.2514 76.8483 53.9054 76.8556C54.5594 76.8629 54.6402 77.3108 54.6402 77.8248C54.6402 81.2122 54.6402 84.5972 54.6402 87.9797C54.6387 88.3383 54.5369 88.6892 54.3463 88.993H53.3984C53.2119 88.5785 53.1287 88.125 53.1559 87.6713C53.1559 86.4378 53.1559 85.2042 53.1559 84C53.1559 83.5888 53.0236 83.4567 52.6195 83.464C50.6061 83.464 48.5977 83.464 46.5941 83.464C46.1753 83.464 46.0577 83.6108 46.065 84.0147C46.065 85.2703 46.065 86.5259 46.065 87.7815C46.0959 88.2093 46.0122 88.6376 45.8225 89.0224L44.9775 88.993Z" fill="white"/>
<path d="M34.8078 88.993C34.7537 88.8392 34.731 88.6762 34.7411 88.5135C34.7512 88.3508 34.7939 88.1917 34.8665 88.0458C35.8659 85.843 36.8432 83.6402 37.8058 81.4374C37.938 81.1437 38.0483 80.85 38.4377 80.8427C38.8272 80.8353 38.9447 81.151 39.077 81.4448C40.0543 83.6476 41.0316 85.8503 42.0162 88.0531C42.0905 88.2 42.1292 88.3622 42.1292 88.5268C42.1292 88.6913 42.0905 88.8535 42.0162 89.0004H41.5753C41.204 88.4676 40.912 87.8839 40.7083 87.2675C40.672 87.1303 40.5873 87.0109 40.4698 86.9312C40.3523 86.8516 40.2099 86.8172 40.069 86.8343C39.4163 86.893 38.7597 86.893 38.107 86.8343C36.7991 86.658 35.8585 86.9664 35.6014 88.4203C35.5381 88.6253 35.4466 88.8205 35.3295 89.0004L34.8078 88.993ZM38.4818 82.0175L36.7403 86.0486H40.2527L38.4818 82.0175Z" fill="white"/>
<path d="M57.1753 88.993C57.1064 88.8459 57.0707 88.6855 57.0707 88.5231C57.0707 88.3607 57.1064 88.2002 57.1753 88.0531C58.1673 85.8503 59.1299 83.6989 60.1146 81.5182C60.2468 81.2245 60.3203 80.85 60.7685 80.8573C61.2168 80.8647 61.3049 81.2171 61.4372 81.5182C62.4365 83.721 63.4138 85.9678 64.4279 88.178C64.5279 88.4405 64.5279 88.7305 64.4279 88.993H63.8547C63.5461 88.2587 63.4065 87.385 62.8774 86.9664C62.3484 86.5479 61.4078 86.8783 60.673 86.8416C60.6216 86.8416 60.5775 86.8416 60.526 86.8416C59.2181 86.5993 58.3216 87.0031 58.0351 88.4056C57.9727 88.6085 57.8915 88.8052 57.7926 88.993H57.1753ZM62.5835 86.0559L60.8053 82.0175L59.0417 86.0559H62.5835Z" fill="white"/>
<path d="M48.7544 14.6853C49.3352 15.8759 49.7908 17.1235 50.1138 18.408C50.1516 18.4991 50.1692 18.5973 50.1654 18.6958C50.1616 18.7944 50.1365 18.8909 50.0918 18.9788C50.0471 19.0667 49.9839 19.1439 49.9065 19.2051C49.8291 19.2663 49.7394 19.31 49.6435 19.3332C49.5445 19.364 49.4402 19.3735 49.3372 19.3611C49.2343 19.3487 49.1352 19.3147 49.0463 19.2613C48.9575 19.2079 48.881 19.1363 48.8218 19.0513C48.7626 18.9662 48.7221 18.8696 48.703 18.7678C48.365 17.7398 48.0343 16.7045 47.6669 15.6839C47.4979 15.2213 47.7992 14.9496 48.0269 14.6853H48.7544Z" fill="white"/>
<path d="M57.3149 14.6853C57.4771 14.8613 57.5848 15.0804 57.6252 15.3162C57.6656 15.552 57.637 15.7944 57.5427 16.0143C57.2267 16.9248 56.9181 17.828 56.6316 18.7458C56.4699 19.2524 56.176 19.4801 55.6616 19.3259C55.1472 19.1717 55.0444 18.7752 55.2281 18.2905C55.691 17.0937 55.8894 15.794 56.5875 14.6853H57.3149Z" fill="white"/>
<path d="M66.6176 88.993C66.5335 88.9128 66.4549 88.8269 66.3824 88.736C66.3291 88.6696 66.2895 88.5933 66.2658 88.5115C66.2421 88.4297 66.2349 88.344 66.2444 88.2594C66.254 88.1748 66.2802 88.0929 66.3215 88.0184C66.3629 87.944 66.4185 87.8784 66.4853 87.8255C66.5848 87.7321 66.7162 87.6801 66.8527 87.6801C66.9892 87.6801 67.1206 87.7321 67.2201 87.8255C67.3611 87.9222 67.458 88.0707 67.4896 88.2386C67.5213 88.4064 67.4852 88.58 67.3891 88.7213C67.3303 88.8241 67.2642 88.9196 67.1981 89.015L66.6176 88.993Z" fill="white"/>
<path d="M51.9215 43.6742C51.2675 43.6742 50.6209 43.6742 49.9669 43.6742C49.3129 43.6742 49.0263 43.4318 49.019 42.8151C48.8896 40.6952 48.1552 38.6568 46.9027 36.9409C45.7788 35.3754 44.9131 33.6402 44.3383 31.8011C42.6923 25.3689 48.5414 20.42 53.6409 21.0735C58.0498 21.6462 63.017 26.3602 60.7098 32.8217C60.0217 34.4532 59.1568 36.0044 58.1306 37.4476C57.2064 38.8106 56.6012 40.364 56.3597 41.9927C56.2994 42.1976 56.2927 42.4146 56.3403 42.6229C56.3879 42.8312 56.4882 43.0237 56.6316 43.1822C56.7282 43.2705 56.7975 43.3848 56.831 43.5113C56.8645 43.6379 56.8609 43.7714 56.8207 43.896C56.7804 44.0205 56.7051 44.1309 56.6039 44.214C56.5026 44.297 56.3796 44.3492 56.2495 44.3644C53.9936 44.9958 51.7304 45.5906 49.4599 46.1707C49.3524 46.2046 49.2385 46.2133 49.1271 46.1962C49.0157 46.1791 48.9097 46.1366 48.8173 46.072C48.725 46.0074 48.6488 45.9224 48.5945 45.8237C48.5403 45.7249 48.5095 45.615 48.5046 45.5025C48.3944 45.0105 48.6442 44.7242 49.1145 44.5993L51.9582 43.8651L51.9215 43.6742ZM55.9702 33.1815C55.9115 33.321 55.8747 33.4091 55.8306 33.4899C54.6147 35.8981 54.0715 38.5895 54.2581 41.2804C54.2581 41.677 54.4419 41.9486 54.8533 41.9339C55.2648 41.9193 55.3824 41.6402 55.4044 41.2878C55.4044 41.163 55.4044 41.0455 55.4044 40.9207C55.4044 38.057 55.7645 35.2815 57.6089 32.9245C57.9616 32.4839 57.697 32.014 57.1165 31.97C56.6683 31.97 56.2201 31.97 55.7057 31.97C55.9335 31.3385 56.1246 30.7437 55.4559 30.4353C54.7872 30.127 54.4272 30.6189 54.17 31.2137C54.0083 30.7804 53.8467 30.428 53.3911 30.3693C52.9355 30.3105 52.5901 30.6777 52.355 31.1035C51.7378 30.2077 50.8854 30.1123 50.7017 30.92C50.4298 32.0214 49.7538 32.0654 48.8941 31.9773C48.681 31.9773 48.4605 31.9773 48.2401 31.9773C48.1076 31.9571 47.9721 31.9806 47.8541 32.0442C47.7361 32.1078 47.642 32.208 47.5861 32.3297C47.5504 32.4535 47.5479 32.5844 47.5789 32.7095C47.6098 32.8345 47.6731 32.9491 47.7625 33.042C48.7249 34.2587 49.3576 35.7027 49.5995 37.2346C49.8564 38.5127 49.9649 39.816 49.9228 41.1189C49.9003 41.2602 49.9197 41.4049 49.9784 41.5354C50.0372 41.6658 50.1328 41.7763 50.2535 41.8532C50.3389 41.8984 50.4354 41.9183 50.5318 41.9105C50.6281 41.9026 50.7202 41.8675 50.7972 41.8091C51.0985 41.6182 51.0764 41.3245 51.0764 41.0749C51.1851 38.787 50.8069 36.5021 49.9669 34.371C50.1106 34.4545 50.2726 34.5014 50.4387 34.5076C50.6048 34.5138 50.7698 34.4791 50.9193 34.4066C51.0689 34.334 51.1983 34.2259 51.2961 34.0916C51.394 33.9574 51.4573 33.8012 51.4806 33.6367C51.6863 34.1067 51.9068 34.4885 52.4285 34.4885C52.9502 34.4885 53.1045 34.0553 53.3764 33.6955C53.5454 34.1874 53.8026 34.4811 54.2949 34.4297C54.7872 34.3783 55.0297 34.0479 55.1105 33.6294C55.1914 33.2109 55.4559 33.042 55.9702 33.1815ZM46.2928 28.6364C46.2928 29.1871 46.4618 29.4441 46.8586 29.4955C46.9476 29.5157 47.0398 29.5176 47.1295 29.5009C47.2192 29.4842 47.3046 29.4493 47.3803 29.3984C47.456 29.3475 47.5205 29.2816 47.5698 29.2049C47.6191 29.1281 47.6522 29.0421 47.6669 28.9521C47.9737 27.7753 48.6092 26.7099 49.4991 25.8804C50.3891 25.0509 51.4968 24.4915 52.693 24.2675C53.1853 24.1427 53.5086 23.8784 53.369 23.357C53.2294 22.8357 52.8326 22.7402 52.3256 22.8577C51.2231 23.0976 50.1827 23.5642 49.2705 24.2279C48.3584 24.8916 47.5946 25.7378 47.0277 26.7126C46.6587 27.2995 46.409 27.9532 46.2928 28.6364Z" fill="white"/>
<path d="M54.8533 62.7063C59.6884 56.3035 64.5013 49.9301 69.2776 43.5787C69.3949 43.3609 69.5917 43.1967 69.8271 43.1201C70.0625 43.0436 70.3183 43.0605 70.5415 43.1675C71.1838 43.3738 71.8362 43.5478 72.496 43.6888C72.9296 43.7843 72.9737 43.9018 72.665 44.2248C70.7178 46.2735 68.7779 48.3367 66.838 50.3927C63.0856 54.3675 59.3308 58.3374 55.5734 62.3025C55.4044 62.4787 55.2795 62.7577 54.8533 62.7063Z" fill="white"/>
<path d="M31.1484 43.8283C32.2286 43.5493 33.1839 43.3143 34.0877 43.05C34.5065 42.9325 34.5873 43.2776 34.7416 43.4832L44.4484 56.2447L48.8573 62.0748C48.9735 62.1713 49.062 62.297 49.1137 62.4389C49.1653 62.5808 49.1783 62.7339 49.1512 62.8825L31.1484 43.8283Z" fill="white"/>
<path d="M57.3149 62.4126C59.7251 59.9381 62.1279 57.449 64.5528 54.9892C67.9549 51.5161 71.3791 48.065 74.7739 44.592C75.0973 44.2615 75.3251 44.1734 75.7439 44.4157C76.3832 44.8049 77.0665 45.15 77.816 45.4951C76.486 46.6185 75.2148 47.6979 73.9289 48.7846L57.7926 62.4126C57.6978 62.4847 57.597 62.5485 57.4913 62.6035L57.3149 62.4126Z" fill="white"/>
<path d="M46.5427 62.4493C44.2207 60.5182 41.906 58.5944 39.5914 56.656C35.3442 53.0874 31.097 49.5116 26.8498 45.9283C26.7029 45.8109 26.5633 45.6787 26.3649 45.5025C27.1879 45.0913 27.9227 44.7168 28.6575 44.3203C29.069 44.0927 29.2306 44.4304 29.429 44.636L37.1445 52.4853L46.4986 62.0308C46.5794 62.1189 46.6529 62.2144 46.7264 62.3098L46.5427 62.4493Z" fill="white"/>
<path d="M67.7051 42.4699L53.7438 62.6549L53.5601 62.5374C54.4933 60.7899 55.4191 59.035 56.3597 57.2947C59.0197 52.385 61.665 47.4825 64.2956 42.5874C64.5748 42.0587 64.8467 41.8531 65.4566 42.022C66.0665 42.1909 66.8674 42.2937 67.7051 42.4699Z" fill="white"/>
<path d="M36.7404 42.4186L39.4444 41.8532C39.7825 41.7871 39.8486 42.0514 39.9588 42.257C42.0506 46.1486 44.1423 50.0378 46.2341 53.9245L50.5547 62.0014C50.6723 62.2217 50.878 62.4273 50.7311 62.7357L36.7404 42.4186Z" fill="white"/>
<path d="M49.4084 48.2266C49.2999 48.2409 49.1896 48.233 49.0842 48.2034C48.9788 48.1738 48.8806 48.1232 48.7954 48.0545C48.7102 47.9859 48.6398 47.9006 48.5886 47.804C48.5373 47.7073 48.5062 47.6013 48.4972 47.4923C48.4724 47.3979 48.4679 47.2994 48.484 47.2032C48.5001 47.1069 48.5364 47.0152 48.5906 46.934C48.6447 46.8528 48.7155 46.7841 48.7982 46.7322C48.8809 46.6804 48.9737 46.6466 49.0704 46.6332C51.2748 46.0385 53.5527 45.4511 55.7939 44.8857C55.9002 44.8527 56.0123 44.8429 56.1227 44.8569C56.2332 44.8709 56.3393 44.9084 56.434 44.9668C56.5287 45.0253 56.6097 45.1033 56.6717 45.1957C56.7337 45.2881 56.7751 45.3927 56.7932 45.5024C56.8204 45.6005 56.8269 45.7031 56.8123 45.8037C56.7977 45.9044 56.7624 46.0009 56.7085 46.0872C56.6546 46.1735 56.5833 46.2477 56.4993 46.305C56.4152 46.3623 56.3201 46.4016 56.2201 46.4203L49.6068 48.1678C49.5417 48.1908 49.4755 48.2104 49.4084 48.2266Z" fill="white"/>
<path d="M50.6282 50.0329C50.0404 50.0329 49.7023 49.82 49.6142 49.2986C49.5834 49.1133 49.6249 48.9231 49.7301 48.7674C49.8354 48.6117 49.9964 48.5023 50.18 48.4616C51.5908 48.0797 53.009 47.7273 54.4345 47.3528C54.5443 47.3145 54.6609 47.2993 54.7769 47.3082C54.8929 47.317 55.0058 47.3496 55.1086 47.4041C55.2114 47.4586 55.3018 47.5336 55.3742 47.6246C55.4466 47.7156 55.4994 47.8206 55.5294 47.9329C55.5639 48.0164 55.5802 48.1062 55.5775 48.1964C55.5747 48.2867 55.5528 48.3753 55.5132 48.4565C55.4736 48.5377 55.4173 48.6096 55.3479 48.6674C55.2784 48.7252 55.1976 48.7677 55.1105 48.792C53.5674 49.2472 52.0317 49.6437 50.6282 50.0329Z" fill="white"/>
<path d="M41.8031 18.9954C41.921 18.9939 42.0379 19.0165 42.1466 19.062C42.2553 19.1075 42.3535 19.1748 42.4351 19.2598C43.1778 19.9114 43.875 20.613 44.5219 21.3598C44.5965 21.4285 44.656 21.512 44.6967 21.6049C44.7374 21.6977 44.7585 21.7981 44.7585 21.8995C44.7585 22.0009 44.7374 22.1012 44.6967 22.194C44.656 22.2869 44.5965 22.3704 44.5219 22.4391C44.1545 22.8136 43.7871 22.7108 43.4638 22.3584C42.7878 21.6682 42.1044 20.9926 41.421 20.3098C41.3022 20.2069 41.2195 20.0687 41.1851 19.9153C41.1507 19.762 41.1664 19.6017 41.23 19.458C41.2763 19.3373 41.3537 19.231 41.4543 19.1498C41.555 19.0685 41.6753 19.0153 41.8031 18.9954Z" fill="white"/>
<path d="M61.2902 22.6668C60.7759 22.6668 60.3497 22.028 60.6215 21.6314C61.3278 20.681 62.1553 19.8269 63.0831 19.0909C63.2045 19.0064 63.3531 18.9701 63.4998 18.9891C63.6465 19.0081 63.7809 19.0811 63.8767 19.1937C64.1192 19.3993 64.2809 19.715 64.0898 19.928C63.3395 20.9261 62.457 21.8178 61.4666 22.5787C61.4152 22.6209 61.3549 22.6511 61.2902 22.6668Z" fill="white"/>
<path d="M46.5427 62.4493L46.7264 62.2731L47.689 63.1469C47.2295 63.0752 46.8173 62.8243 46.5427 62.4493Z" fill="white"/>
<path d="M57.3149 62.4126L57.4913 62.5815C57.2599 62.8891 56.9468 63.1257 56.5875 63.2643C56.7393 62.9142 56.9927 62.6175 57.3149 62.4126Z" fill="white"/>
<path d="M47.8947 63.4846L48.0049 63.5287L47.9241 63.6829C47.9241 63.6829 47.8653 63.6168 47.858 63.5727C47.8506 63.5287 47.88 63.514 47.8947 63.4846Z" fill="white"/>
<path d="M56.4111 63.492V63.5434L56.3376 63.4993C56.3376 63.4993 56.3376 63.4553 56.3891 63.4553C56.4405 63.4553 56.3964 63.4773 56.4111 63.492Z" fill="white"/>
<path d="M56.0217 63.7416L56.1319 63.6461V63.7049H55.9849L56.0217 63.7416Z" fill="white"/>
<path d="M56.0069 63.7343C56.0584 63.7783 56.051 63.8224 56.0069 63.8444H55.9408L56.0437 63.7636L56.0069 63.7343Z" fill="white"/>
<path d="M67.301 83.9192C67.301 84.7343 67.2201 85.5566 67.1834 86.379C67.1834 86.5993 67.1834 86.8489 66.8601 86.8416C66.5368 86.8343 66.5955 86.5993 66.5808 86.4084C66.4927 84.771 66.4045 83.1262 66.3237 81.4888C66.3237 81.1143 66.4633 80.872 66.8527 80.8647C67.2422 80.8573 67.4479 81.1364 67.4332 81.5255C67.3965 82.3259 67.345 83.1189 67.301 83.9192Z" fill="white"/>
</svg>
