<svg width="12" height="12" viewBox="0 0 12 12" fill="none" xmlns="http://www.w3.org/2000/svg">
<path d="M15.5208 0H-3V12.4354H15.5208V0Z" fill="#ED5565"/>
<path d="M-3 1.43484H15.5208H-3ZM15.5208 3.34799H-3H15.5208ZM-3 5.26113H15.5208H-3ZM15.5208 7.17427H-3H15.5208ZM-3 9.08741H15.5208H-3ZM15.5208 11.0006H-3H15.5208Z" fill="black"/>
<path d="M15.5208 11.0006H-3M-3 1.43484H15.5208H-3ZM15.5208 3.34799H-3H15.5208ZM-3 5.26113H15.5208H-3ZM15.5208 7.17427H-3H15.5208ZM-3 9.08741H15.5208H-3Z" stroke="#F5F7FA" stroke-width="0.846916"/>
<path d="M6.45092 0H-3V6.75077H6.45092V0Z" fill="#4758A9"/>
<path d="M1.3639 2L1.5888 2.69218L1 2.26439H1.7278L1.139 2.69218L1.3639 2Z" fill="white"/>
<path d="M1.3639 3L1.5888 3.69218L1 3.26439H1.7278L1.139 3.69218L1.3639 3Z" fill="white"/>
<path d="M1.3639 4L1.5888 4.69218L1 4.26439H1.7278L1.139 4.69218L1.3639 4Z" fill="white"/>
<path d="M1.3639 5L1.5888 5.69218L1 5.26439H1.7278L1.139 5.69218L1.3639 5Z" fill="white"/>
</svg>
